<?xml version="1.0" standalone="no"?><!DOCTYPE svg PUBLIC "-//W3C//DTD SVG 1.1//EN" "http://www.w3.org/Graphics/SVG/1.1/DTD/svg11.dtd"><svg t="1770960599276" class="icon" viewBox="0 0 1024 1024" version="1.1" xmlns="http://www.w3.org/2000/svg" p-id="3327" xmlns:xlink="http://www.w3.org/1999/xlink" width="256" height="256"><path d="M464.368 806.666h99.419v27.542h-99.42v-27.542zM464.368 857.89h99.419v27.518h-99.42V857.89zM249.418 909.076h529.305v27.554H249.418v-27.554z" fill="#000000" p-id="3328"></path><path d="M1021.72 617.265c-1.4-0.719-3.028-0.454-4.177 0.707-40.474 40.537-99.04 56.458-136.865 57.784-33.27 1.148-63.399-8.933-94.031-20.212-6.599-2.447-20.68-9.374-38.406-18.61v-75.762c1.275 0.037 2.788 0.087 4.541 0.15 3.206 0.1 7.13 0.228 11.609 0.228 17.221 0 32.285-1.994 46.013-6.119 31.214-9.374 148.573-85.932 153.557-89.187 1.162-0.745 1.905-2.22 1.905-3.81v-40.866c0-1.716-0.858-3.255-2.145-3.949-1.274-0.719-2.776-0.442-3.86 0.67-37.573 39.414-91.95 54.894-127.087 56.169-30.873 1.123-58.857-8.68-87.295-19.644-6.183-2.41-19.467-9.26-36.21-18.395v-70.4c14.548-0.24 27.48-1.868 39.288-5.098 28.918-7.922 137.673-72.62 142.29-75.384 1.06-0.63 1.742-1.867 1.742-3.217v-34.532c0-1.45-0.757-2.75-1.968-3.343-1.173-0.593-2.587-0.366-3.583 0.58-34.81 33.308-85.188 46.379-117.75 47.464-28.629 0.945-54.556-7.331-80.886-16.617-21.853-7.696-138.254-69.77-167.095-85.225V166.41c5.3-2.763 8.957-8.378 8.957-14.926 0-6.535-3.658-12.162-8.957-14.913v-12.339c2.474-2.056 4.063-5.11 4.063-8.579 0-3.444-1.59-6.51-4.063-8.58V88.768a7.216 7.216 0 0 0-7.217-7.217c-3.987 0-7.23 3.243-7.23 7.217v18.307c-2.447 2.069-4.049 5.135-4.049 8.579 0 3.469 1.602 6.523 4.05 8.58v12.338c-5.3 2.751-8.97 8.378-8.97 14.913 0 6.548 3.67 12.163 8.97 14.926v24.224c-28.791 15.43-145.242 77.542-167.095 85.238-26.33 9.298-52.27 17.6-80.884 16.617-32.576-1.086-82.942-14.156-117.764-47.464-0.997-0.946-2.398-1.173-3.57-0.58-1.212 0.594-1.982 1.892-1.982 3.343v34.532c0 1.35 0.682 2.587 1.766 3.217 4.592 2.763 113.36 67.462 142.265 75.384 11.822 3.243 24.753 4.87 39.3 5.097v70.4c-16.742 9.135-30.04 15.986-36.234 18.396-28.425 10.963-56.384 20.805-87.27 19.644-35.137-1.275-89.514-16.755-127.087-56.17-1.072-1.11-2.599-1.387-3.86-0.669-1.3 0.694-2.132 2.233-2.132 3.95v40.865c0 1.59 0.731 3.065 1.892 3.81 4.971 3.256 122.331 79.813 153.544 89.187 13.726 4.125 28.79 6.119 46.025 6.119 4.492 0 8.402-0.127 11.607-0.228 1.754-0.064 3.268-0.113 4.542-0.15v75.762c-17.74 9.235-31.819 16.163-38.405 18.61-30.608 11.278-60.737 21.384-94.02 20.212-37.85-1.326-96.415-17.247-136.914-57.784-1.135-1.162-2.751-1.427-4.139-0.707-1.387 0.732-2.283 2.309-2.283 4.063v42.038c0 1.653 0.795 3.154 2.032 3.937 5.362 3.344 131.768 82.071 165.378 91.723 14.8 4.265 31.037 6.309 49.571 6.309 4.832 0 9.06-0.114 12.503-0.253 4.037-0.101 7.078-0.277 8.289 0 0.48 0.114 1.198 0.265 8.553 0.405v120.576h197.526V765.7H580.15v125.321h197.55V765.486c7.319-0.14 8.05-0.29 8.53-0.405 1.212-0.277 4.264-0.101 8.277 0 3.432 0.14 7.671 0.253 12.491 0.253 18.559 0 34.783-2.044 49.582-6.309 33.623-9.652 160.004-88.379 165.406-91.723 1.236-0.783 1.992-2.283 1.992-3.937v-42.038c0.001-1.753-0.881-3.33-2.257-4.062zM414.507 366.371c40.057-0.074 84.392-0.302 99.204-0.378l-0.012-3.684 0.744 3.684c14.813 0.075 59.173 0.303 99.205 0.378v72.356c-61.002 0.632-138.14 0.632-199.14 0v-72.356z m-71.827 271.99c-11.077-0.202-21.145-0.404-29.926-0.63v-75.852c5.98 0.025 13.146 0.039 21.851 0.039h8.075v76.443z m9.06-272.078c6.055 0.064 15.417 0.114 29.938 0.126v71.877c-11.052-0.202-21.07-0.416-29.938-0.644v-71.359zM652.633 638.79c-81.528 0.919-195.57 0.919-277.099 0v-76.873h277.1v76.873z m23.783-201.148c-8.858 0.228-18.874 0.442-29.926 0.644V366.41c14.52-0.012 23.882-0.063 29.926-0.126v71.36zM715.4 637.73c-8.755 0.227-18.836 0.428-29.927 0.63v-76.443h8.1c8.706 0 15.847-0.014 21.827-0.039v75.852z" fill="#000000" p-id="3329"></path></svg>